<?xml version="1.0" encoding="UTF-8"?>
<svg width="28px" height="28px" viewBox="0 0 28 28" version="1.1" xmlns="http://www.w3.org/2000/svg" xmlns:xlink="http://www.w3.org/1999/xlink">
    <title>地图大屏logo</title>
    <g id="logo" stroke="none" stroke-width="1" fill="none" fill-rule="evenodd">
        <g id="地图大屏logo" fill-rule="nonzero">
            <polygon id="Fill-1" fill-opacity="0" fill="#000000" points="0 28 28 28 28 0 0 0"></polygon>
            <path d="M3.40256,14.48158 L3.40844315,14.6766664 C3.74070427,15.0450274 4.52166227,15.5335936 6.10316,15.98348 C8.20436,16.58128 11.00886,16.91048 13.99996,16.91048 C16.99116,16.91048 19.79556,16.58128 21.89686,15.98348 C23.4782736,15.5335936 24.259289,15.0450274 24.5915705,14.6766664 L24.59746,14.48158 L26.19746,14.48158 C26.09016,21.11668 20.66026,26.48158 13.99996,26.48158 C7.33976,26.48158 1.90986,21.11668 1.80256,14.48158 L3.40256,14.48158 Z M15.3680255,22.5580629 L15.3047394,22.5621642 C14.8759617,22.5949585 14.4406286,22.61176 14,22.61176 C13.5379357,22.61176 13.0815279,22.5931492 12.6322651,22.5568749 C12.9778332,23.7853601 13.3599106,24.5411074 13.6672579,24.8768568 C13.7774561,24.879851 13.8885098,24.88158 13.99996,24.88158 C14.1110754,24.88158 14.2217967,24.8798614 14.3320987,24.8764494 C14.639413,24.5418368 15.0217115,23.7859906 15.3680255,22.5580629 Z M18.9821378,21.8473701 L18.9527149,21.8570463 C18.2222048,22.0917355 17.453113,22.2757839 16.6545274,22.4033588 C16.4486294,23.2347495 16.1905015,24.0321027 15.8671341,24.6851704 C17.054755,24.1722818 18.1277357,23.1826529 18.9821378,21.8473701 Z M9.02541072,21.8466219 L9.13147332,22.007257 C9.96751604,23.2561416 10.9985089,24.1857364 12.1299762,24.6799526 C11.8074362,24.0272263 11.5500624,23.2313266 11.3451264,22.4007363 C10.5394857,22.2727847 9.76285302,22.0855625 9.02541072,21.8466219 Z M4.81932343,19.5752093 L4.9136563,19.7347207 C5.84145259,21.2751294 7.14968115,22.5616217 8.70732302,23.463123 L8.7556,23.52488 C8.1858291,22.8323503 7.68496909,22.0288826 7.26536778,21.1440969 C6.35340563,20.7032209 5.52972289,20.1752404 4.81932343,19.5752093 Z M23.173623,19.5871561 L23.1167176,19.6352212 C22.4210956,20.2130193 21.6193513,20.7223119 20.7336477,21.148875 C20.3282163,22.0012173 19.8473062,22.7790935 19.301,23.45538 C20.9009337,22.531857 22.2418165,21.1923308 23.173623,19.5871561 Z M16.1350886,18.0538265 L15.9255258,18.064498 C15.2879415,18.0951035 14.6435267,18.11048 13.99996,18.11048 C13.2859102,18.11048 12.5708146,18.0915503 11.8651621,18.0538925 C11.9797983,19.3271518 12.1438208,20.4135869 12.3328399,21.3241026 C12.8807294,21.3819712 13.4378569,21.41176 14,21.41176 C14.5623061,21.41176 15.1194634,21.3819964 15.6672708,21.3235983 C15.8560491,20.4135211 16.0200847,19.3272198 16.1350886,18.0538265 Z M20.6795677,17.5083443 L20.4593594,17.5517204 C19.4879314,17.7368058 18.4368931,17.8764382 17.3473217,17.969828 C17.2774029,18.7640346 17.1494612,19.9288315 16.9254898,21.1361314 C17.9521685,20.9383059 18.9309188,20.6369473 19.8321834,20.2400306 C20.1916384,19.4056546 20.4794577,18.4890407 20.6795677,17.5083443 Z M7.32066407,17.5087562 L7.3424424,17.6124964 C7.54235879,18.5545346 7.82454386,19.4368927 8.17441969,20.2416577 C9.07362569,20.6381142 10.0504179,20.9385744 11.0739353,21.1358138 C10.8508212,19.9304736 10.722909,18.7674603 10.6532886,17.9686933 C9.48032354,17.8693442 8.3526069,17.7153258 7.32066407,17.5087562 Z M24.2491137,16.3669521 L24.2020355,16.3908855 C23.5779835,16.7081131 22.8157525,16.9823557 21.954672,17.2128571 C21.8272022,17.9619785 21.6498788,18.6889961 21.4273761,19.3841113 L21.3436,19.43726 C22.6872811,18.5844606 23.6805582,17.5271265 24.2491137,16.3669521 Z M3.75221224,16.3674137 L3.80396008,16.4722459 C4.36789826,17.5668889 5.31194298,18.5661495 6.57118619,19.3824701 C6.34971809,18.6876129 6.17247702,17.9611918 6.04484451,17.2136944 C5.16309292,16.9766896 4.38461776,16.6946041 3.75221224,16.3674137 Z" id="形状结合" fill="#0081E2"></path>
            <path d="M15.87479,9.1575 L12.37479,8.0993 C12.20809,8.0489 11.99999,8.112 11.99999,8.213 L11.99999,14.3504 C11.99999,14.4228 12.11199,14.4816 12.24999,14.4816 L15.74999,14.4816 C15.88809,14.4816 15.99999,14.4228 15.99999,14.3504 L15.99999,9.2712 C15.99999,9.2243 15.95229,9.1809 15.87479,9.1575" id="Fill-15" fill="#8BC5F7"></path>
            <path d="M21.37471,7.89776 L17.87471,6.89826 C17.70801,6.85066 17.50001,6.91036 17.50001,7.00576 L17.50001,14.35756 C17.50001,14.42606 17.61191,14.48156 17.75001,14.48156 L21.25001,14.48156 C21.38811,14.48156 21.50001,14.42606 21.50001,14.35756 L21.50001,8.00526 C21.50001,7.96086 21.45221,7.91986 21.37471,7.89776" id="Fill-17" fill="#5CAFF4"></path>
            <path d="M14,2.08158 C13.1787,2.08158 12.3762,2.16378 11.6,2.31918 L11.6,3.95638 C12.3715,3.77708 13.1747,3.68158 14,3.68158 C19.5076,3.68158 24.0469,7.90398 24.5525,13.28158 L26.1588,13.28158 C25.6484,7.02048 20.3904,2.08158 14,2.08158" id="Fill-19" fill="#5CAFF4"></path>
            <path d="M5.2,5.84148 C3.3124,7.80898 2.0757,10.40558 1.8412,13.28158 L3.4475,13.28158 C3.6169,11.47948 4.2399,9.80748 5.2,8.38018 L5.2,5.84148 Z" id="Fill-21" fill="#5CAFF4"></path>
            <path d="M6.65,14.48158 L10.15,14.48158 C10.2881,14.48158 10.4,14.40298 10.4,14.30598 L10.4,2.53478 L6.9679,1.37008 C6.8668,1.33578 6.76,1.31838 6.6504,1.31838 C6.6495,1.31838 6.6486,1.31838 6.6478,1.31838 C6.5096,1.31878 6.4,1.43618 6.4,1.57438 L6.4,14.30598 C6.4,14.40298 6.5119,14.48158 6.65,14.48158" id="Fill-23" fill="#0081E2"></path>
        </g>
    </g>
</svg>